<svg xmlns="http://www.w3.org/2000/svg" viewBox="0 0 100 100" width="100" height="100">
  <!-- Mandarin Duck Head Symbol White Silhouetted (Icone Branco) -->
  <g fill="#FFFFFF">
    <!-- Crest & Neck -->
    <path d="M 45 18 C 60 12 82 15 92 28 C 82 32 72 38 65 48 C 75 42 86 42 90 50 C 78 52 68 60 62 70 C 58 76 55 82 52 88 C 42 85 35 78 32 70 C 30 65 28 58 28 50 C 28 35 35 24 45 18 Z" opacity="0.95"/>
    <!-- Cheek Fan -->
    <path d="M 42 45 C 55 42 70 48 80 58 C 72 65 60 68 48 65 C 42 62 38 55 42 45 Z" opacity="0.8"/>
    <!-- Chest -->
    <path d="M 28 50 C 30 62 38 78 52 88 C 42 90 30 85 22 75 C 18 68 18 58 22 50 C 24 48 26 49 28 50 Z" opacity="0.85"/>
    <!-- Eye Stripe -->
    <path d="M 22 38 C 28 28 38 24 48 25 C 58 26 65 32 60 40 C 52 38 42 38 32 44 C 26 48 22 45 22 38 Z"/>
    <!-- Beak -->
    <path d="M 10 44 C 18 42 24 43 28 47 C 24 51 18 52 10 48 C 8 46 8 45 10 44 Z" opacity="0.9"/>
    <!-- Eye Cutout -->
    <circle cx="38" cy="34" r="3" fill="#2A382D"/>
  </g>
</svg>
